<?xml version="1.0" encoding="UTF-8" standalone="no"?>
<svg
   xmlns:dc="http://purl.org/dc/elements/1.1/"
   xmlns:cc="http://creativecommons.org/ns#"
   xmlns:rdf="http://www.w3.org/1999/02/22-rdf-syntax-ns#"
   xmlns:svg="http://www.w3.org/2000/svg"
   xmlns="http://www.w3.org/2000/svg"
   xmlns:sodipodi="http://sodipodi.sourceforge.net/DTD/sodipodi-0.dtd"
   xmlns:inkscape="http://www.inkscape.org/namespaces/inkscape"
   sodipodi:docname="Biểu_trưng_Hội_Liên_hiệp_Thanh_niên_Việt_Nam.svg"
   inkscape:version="1.0.2 (e86c870879, 2021-01-15, custom)"
   id="svg8"
   version="1.1"
   viewBox="0 0 52.916664 52.916668"
   height="200"
   width="200">
  <defs
     id="defs2" />
  <sodipodi:namedview
     inkscape:window-maximized="1"
     inkscape:window-y="-8"
     inkscape:window-x="-8"
     inkscape:window-height="837"
     inkscape:window-width="1600"
     units="px"
     showgrid="false"
     inkscape:document-rotation="0"
     inkscape:current-layer="layer1"
     inkscape:document-units="mm"
     inkscape:cy="306.87172"
     inkscape:cx="359.09552"
     inkscape:zoom="0.70710678"
     inkscape:pageshadow="2"
     inkscape:pageopacity="0.0"
     borderopacity="1.0"
     bordercolor="#666666"
     pagecolor="#ffffff"
     id="base" />
  <metadata
     id="metadata5">
    <rdf:RDF>
      <cc:Work
         rdf:about="">
        <dc:format>image/svg+xml</dc:format>
        <dc:type
           rdf:resource="http://purl.org/dc/dcmitype/StillImage" />
        <dc:title></dc:title>
      </cc:Work>
    </rdf:RDF>
  </metadata>
  <g
     id="layer1"
     inkscape:groupmode="layer"
     inkscape:label="Lớp 1">
    <g
       id="g850"
       transform="matrix(0.33968985,0,0,0.33982891,-0.14348835,-0.12347045)">
      <circle
         r="77.631577"
         cy="77.712761"
         cx="77.712761"
         id="path847"
         style="fill:#ffffff;stroke:#fffff1;stroke-width:0.162368;stroke-opacity:0" />
      <g
         transform="translate(139.2975,-38.139227)"
         id="g964">
        <path
           id="path867"
           style="fill:#0091db;stroke-width:0.999999"
           d="m -232.45703,143.44336 c -0.3474,-0.0143 -0.74258,0.0489 -1.10352,0.19336 -0.79773,0.31923 -0.56143,0.55747 0.60352,0.60547 1.05417,0.0434 1.64479,-0.1931 1.3125,-0.52539 -0.16615,-0.16615 -0.4651,-0.25913 -0.8125,-0.27344 z m 22,1 c -0.3474,-0.0143 -0.74258,0.0489 -1.10352,0.19336 -0.79773,0.31923 -0.56143,0.55747 0.60352,0.60547 1.05417,0.0434 1.64479,-0.1931 1.3125,-0.52539 -0.16615,-0.16615 -0.4651,-0.25913 -0.8125,-0.27344 z m -20.52539,13.00586 c -24.34487,-0.0957 -48.8051,3.0469 -73.23633,9.43164 -96.08885,25.11139 -174.47813,103.48886 -199.58398,199.55469 -12.8524,49.1787 -12.66662,96.77784 0.57031,146.13476 l 2.07812,7.75 h 176.15235 176.15429 l 3.86719,-8.71484 c 14.68105,-33.07858 20.22492,-58.84731 19.31836,-89.78516 -0.58692,-20.03093 -2.00569,-28.68774 -9.42773,-57.5 -13.07112,-50.7418 -14.41286,-58.15755 -14.38868,-79.5 0.0255,-22.5853 3.61493,-39.86734 12.71875,-61.24023 4.68004,-10.98727 13.33772,-27.26653 18.70118,-35.16211 2.85293,-4.19986 2.90636,-4.46406 1.15039,-5.74805 -2.49778,-1.8264 -20.92451,-8.98718 -31.96485,-12.42187 -27.07639,-8.42357 -54.51852,-12.69033 -82.10937,-12.79883 z m 278.972654,268.2168 c -0.15157,-0.023 -0.255156,0.34221 -0.285156,1.07031 -0.04343,1.05434 0.19317,1.64472 0.525391,1.3125 0.33222,-0.33226 0.368826,-1.19417 0.08008,-1.91602 -0.119693,-0.29915 -0.22937,-0.45302 -0.320313,-0.46679 z m -575.000004,11 c -0.15157,-0.0229 -0.25515,0.34221 -0.28515,1.07031 -0.0434,1.05434 0.19317,1.64472 0.52539,1.3125 0.33222,-0.3323 0.36875,-1.19413 0.0801,-1.91602 -0.1197,-0.29914 -0.22937,-0.45303 -0.32032,-0.46679 z m 575.000004,12 c -0.15157,-0.0229 -0.255156,0.34221 -0.285156,1.07031 -0.04343,1.05434 0.19317,1.64472 0.525391,1.3125 0.33222,-0.3323 0.368826,-1.19413 0.08008,-1.91602 -0.119693,-0.29914 -0.22937,-0.45303 -0.320313,-0.46679 z M -347.97266,571.72656 c 0.003,0.10041 0.008,0.16377 0.0117,0.25586 0.028,-0.0832 0.0583,-0.16672 0.0859,-0.25 -0.0326,-0.002 -0.0651,-0.004 -0.0977,-0.006 z m 105.16211,23.5 c 0.0227,0.3366 0.0478,0.22049 0.0742,0.002 -0.0247,-7.4e-4 -0.0495,-8.4e-4 -0.0742,-0.002 z m 121.80078,63.43946 c -0.0881,-0.0134 -0.15247,0.14268 -0.20312,0.38671 0.0893,-0.11053 0.1799,-0.21986 0.26953,-0.33007 -0.0221,-0.0171 -0.0461,-0.0536 -0.0664,-0.0566 z m -122.36328,59.7832 c -0.45312,0 -0.90625,0.0703 -1.25,0.20898 -0.6875,0.27723 -0.125,0.50391 1.25,0.50391 1.37499,0 1.9375,-0.22649 1.25,-0.50391 -0.34375,-0.13871 -0.79687,-0.20898 -1.25,-0.20898 z m 22,0 c -0.45312,0 -0.90625,0.0703 -1.25,0.20898 -0.6875,0.27723 -0.125,0.50391 1.25,0.50391 1.37499,0 1.9375,-0.22649 1.25,-0.50391 -0.34375,-0.13871 -0.79687,-0.20898 -1.25,-0.20898 z"
           transform="scale(0.26458333)"
           sodipodi:nodetypes="ssssssssssssscccccsscsssssssssssssscssssssssscccscccsccssssssssssss" />
      </g>
      <g
         id="g970">
        <path
           id="path865"
           style="fill:#27166c;stroke-width:0.264583"
           d="M 77.254776,0.00211273 C 66.168901,0.08330273 55.3096,2.5050577 45.217454,7.1742837 21.79969,18.008736 5.0790441,39.965007 0.97829358,65.265311 -0.32385858,73.29913 -0.32626628,82.278694 0.97210233,90.400728 5.5106113,118.7919 26.243444,142.93561 53.757509,151.87088 c 5.176981,1.68124 10.642578,2.84985 16.252756,3.47524 3.373569,0.37607 15.414005,0.13196 18.653124,-0.37828 8.949558,-1.40976 15.540961,-3.44645 23.151041,-7.15356 24.59021,-11.97866 40.98028,-35.69723 43.54928,-63.020962 0.39792,-4.232241 0.16624,-14.05161 -0.42013,-17.808215 C 152.25731,49.775637 144.72964,34.879599 132.60696,22.784701 119.57578,9.7833747 102.93494,1.9379947 84.959223,0.32095673 c -2.575767,-0.231709 -5.146162,-0.337582 -7.704439,-0.318844 z m 0.213939,3.51916497 c 7.560834,-0.04709 15.033982,1.080418 22.439458,3.384288 2.921087,0.908764 7.796497,2.80339 8.457367,3.2866223 0.4646,0.339722 0.45046,0.409623 -0.30438,1.520838 -1.41908,2.089039 -3.70975,6.395741 -4.94802,9.30279 -2.40872,5.654913 -3.358465,10.227968 -3.365164,16.203662 -0.0064,5.646857 0.348604,7.60894 3.807004,21.034375 1.96375,7.623247 2.33913,9.913688 2.49442,15.213542 0.23986,8.185644 -1.22696,15.00361 -5.11132,23.755656 l -1.023189,2.305802 H 53.3074 6.7004267 L 6.1505881,97.478332 C 2.6483197,84.419316 2.5991707,71.824857 5.9996936,58.812992 13.275799,30.971488 37.036161,9.3120937 65.51234,4.5620397 c 4.011462,-0.669145 7.995938,-1.016095 11.956375,-1.040762 z m 34.523475,8.4087893 2.02778,1.089855 c 5.35209,2.876947 11.03711,7.225443 16.20987,12.398208 8.65335,8.653351 14.3274,17.827648 18.12964,29.314491 2.5747,7.778332 3.64112,14.545019 3.64112,23.100398 0,7.286858 -0.66338,12.56392 -2.40296,19.116146 l -0.68471,2.579688 h -22.58415 c -12.42131,0 -22.58415,-0.03916 -22.58415,-0.08682 0,-0.04767 0.46682,-1.163815 1.03766,-2.47995 3.23623,-7.461499 4.76901,-14.507973 4.77801,-21.964551 0.008,-6.341446 -0.54741,-9.643436 -3.54242,-21.067965 -2.48084,-9.463212 -2.89668,-12.179066 -2.7218,-17.768424 0.11219,-3.585729 0.27511,-5.034497 0.8046,-7.14375 1.24183,-4.946896 3.29292,-9.65378 6.38617,-14.654403 z M 77.815465,102.96844 c 38.417495,0 69.849995,0.0442 69.849995,0.0987 0,0.32746 -2.0876,5.20886 -3.18275,7.44192 -5.6964,11.61524 -14.93163,22.09488 -25.82891,29.31035 -9.30188,6.1591 -20.205344,10.21269 -31.476118,11.70161 -3.894555,0.5145 -11.743205,0.70745 -15.447634,0.37983 -8.260387,-0.73055 -16.975194,-2.99913 -24.414531,-6.35569 -16.17123,-7.29629 -29.896242,-20.98961 -37.096443,-37.01014 -1.0365509,-2.30633 -2.2531585,-5.2756 -2.2536083,-5.50044 -7.41e-5,-0.0363 31.4324983,-0.0662 69.8499993,-0.0662 z m 32.518865,3.80266 -1.37244,1.9789 1.60544,0.009 0.8776,-1.16049 0.94444,1.1861 1.71845,0.005 -1.56329,-2.02342 z m -19.025115,3.31163 v 11.40602 h 2.313187 l -0.06423,-8.06979 4.455025,8.06979 h 2.291853 v -11.49401 l -2.266421,-0.0234 0.01746,7.94553 -4.400138,-7.81324 z m 27.781245,0 v 11.40602 h 2.31319 l -0.0642,-8.01708 4.68447,8.01708 h 2.06241 v 0 0 -11.37708 0 h -2.18282 l 0.0742,7.83172 -4.59153,-7.79865 z m -61.162671,0.0284 -2.7342,0.004 -3.90077,11.35938 2.235224,0.0333 0.813919,-2.42113 4.236626,4.9e-4 0.842203,2.35719 2.263059,0.0171 z m 12.018236,0 0.06423,7.7556 -4.233334,-7.74268 -2.513541,-0.012 v 11.37605 h 2.266415 l -0.01746,-8.06979 4.494816,8.06979 h 2.252059 v -11.37709 z m -40.284727,10e-4 v 1.85208 h 3.439583 v 9.525 h 2.38125 v -9.525 h 3.175 v -1.85212 z m 10.847917,0 v 11.37708 h 2.381249 v -5.02708 h 4.497917 v 5.02708 h 2.116667 v -11.37712 h -2.116667 v 4.23333 h -4.497917 v -4.23333 z m 34.660417,0 v 11.37708 h 2.116666 v -5.02708 h 4.497917 v 5.02708 h 2.116666 v -11.37712 h -2.116666 v 4.23333 h -4.497917 v -4.23333 z m 27.781248,0 v 11.37708 h 2.38125 v -11.37712 z m 4.7625,0 v 11.37708 h 8.23516 v -1.99924 l -5.9862,0.0149 0.005,-3.04271 h 5.41891 v -1.99936 l -5.36549,0.015 -0.0351,-2.38125 5.92973,0.0156 v -1.99992 z m -51.243383,2.53266 1.496681,4.64617 -2.943481,-0.0437 z m 2.947909,11.75484 -1.962884,2.15644 1.678459,-0.0164 1.219483,-1.17423 1.197454,1.15084 h 1.71499 l -2.152011,-2.11671 z m 49.042024,3.15743 -3.39238,0.0176 v 10.34923 l 2.27066,0.002 -0.10485,-8.28967 c 0,0 1.42538,5.11148 2.15585,8.25688 h 2.21729 l 2.13386,-8.33437 0.0584,8.33437 h 2.11666 v -10.3184 h -3.32744 l -2.01423,7.91183 z m -56.573632,0.0176 c 0,0 0.02642,10.01267 0,10.31875 h 2.116666 v -10.31875 z m 4.7625,0 v 10.31875 h 8.014995 v -1.85213 h -5.898329 v -2.64583 h 5.556251 v -1.85208 H 58.78885 v -2.11667 h 5.797448 v -1.85208 z m 10.285159,0 0.01705,1.71979 3.323828,0.0187 0.09844,8.57978 h 2.508647 l -0.09464,-8.59896 3.176035,0.006 v -1.72548 z m 15.408881,0 0.06614,10.31875 h 2.551295 l -0.133349,-7.12101 4.51125,7.10565 2.235625,0.0443 v -10.34769 h -2.444072 l 0.02665,6.7386 -4.418224,-6.7386 z m -34.952795,0.0656 -2.404616,7.28726 -2.547132,-7.33649 -2.186035,0.0145 3.713873,10.22879 2.190282,0.0381 3.577165,-10.19381 z m 49.620114,0.0671 -3.848343,10.18646 2.319611,-5e-5 0.850222,-2.11667 h 4.154263 l 0.58608,2.11667 2.58346,0.0493 -3.828409,-10.23577 z m 1.385962,2.36833 1.44992,3.84938 -2.934066,-4e-5 1.484146,-3.84943 z m -39.101488,8.8844 v 1.57923 l 1.819011,0.0165 0.0083,-1.60404 z"
           sodipodi:nodetypes="ssscssssscssssssssscsscccccsssccsssccssscssscccssssssssccccccccccccccccccccccccccccccccccccccccccccccccccccccccccccccccccccccccccccccccccccccccccccccccccccccccccccccccccccccccccccccccccccccccccccccccccccccccccccccccccccccccccccccccccccccccccccccccccccccc" />
        <path
           style="fill:#27166c;fill-opacity:1;stroke:#27166c;stroke-width:0.264583px;stroke-linecap:butt;stroke-linejoin:miter;stroke-opacity:1"
           d="m 80.108154,17.18603 -1.948754,5.779334 -6.098894,0.04237 4.894273,3.639287 -1.844366,5.813488 4.973582,-3.530129 4.959017,3.550563 -1.820434,-5.821029 4.909206,-3.61912 -6.09867,-0.06746 z"
           id="path966" />
      </g>
    </g>
  </g>
</svg>
